<?xml version="1.0" standalone="no"?>
<!DOCTYPE svg PUBLIC "-//W3C//DTD SVG 20010904//EN"
 "http://www.w3.org/TR/2001/REC-SVG-20010904/DTD/svg10.dtd">
<svg version="1.0" xmlns="http://www.w3.org/2000/svg"
 width="1280.000000pt" height="646.000000pt" viewBox="0 0 1280.000000 646.000000"
 preserveAspectRatio="xMidYMid meet">
<g transform="translate(0.000000,646.000000) scale(0.100000,-0.100000)"
fill="#000000" stroke="none">
<path d="M9179 6435 c-152 -27 -238 -52 -384 -112 -163 -67 -161 -67 -185 -32
-14 19 -38 34 -72 44 -95 28 -83 41 -208 -222 -209 -440 -1153 -2470 -1678
-3608 -137 -297 -254 -540 -261 -540 -7 0 -116 225 -243 500 -288 626 -1324
2858 -1531 3300 -239 509 -267 565 -280 565 -7 0 -37 -7 -67 -15 -39 -10 -63
-24 -82 -46 l-27 -33 -153 62 c-173 69 -313 106 -465 123 -122 13 -147 6 -41
-11 135 -22 302 -62 403 -97 226 -78 279 -128 395 -368 101 -209 153 -333 145
-345 -10 -17 -32 -12 -103 24 -153 77 -406 139 -615 151 -64 3 -117 3 -117 -1
0 -3 34 -77 76 -162 85 -175 157 -340 172 -395 14 -49 2 -61 -80 -81 -136 -33
-259 -85 -394 -165 -74 -45 -141 -81 -149 -81 -17 0 -33 30 -150 285 -141 306
-142 307 -168 294 -12 -6 -131 -122 -263 -257 -164 -165 -246 -242 -254 -237
-14 9 -153 293 -215 439 -52 122 -55 155 -20 209 38 57 458 477 478 477 8 0
24 -12 35 -27 25 -36 116 -218 198 -397 36 -77 67 -142 69 -144 2 -2 42 19 89
48 189 114 425 210 516 210 30 0 41 4 37 13 -3 6 -48 107 -100 222 -111 249
-149 341 -151 372 -1 20 -6 23 -46 23 -60 -1 -198 -32 -285 -65 -251 -94 -412
-227 -865 -715 -288 -310 -504 -521 -630 -617 -422 -320 -796 -344 -1369 -88
-57 25 -109 45 -116 43 -9 -2 11 -58 62 -173 91 -206 620 -1366 1040 -2280
l308 -670 150 -76 c255 -128 331 -144 680 -144 249 1 250 1 325 29 208 77 372
182 565 360 53 49 217 220 364 380 531 577 743 746 1057 843 82 25 103 27 264
27 196 1 268 -10 450 -71 141 -47 364 -154 383 -184 15 -23 607 -1306 607
-1315 0 -3 -103 -229 -229 -502 -444 -965 -513 -1120 -500 -1128 23 -14 145
-43 161 -38 20 6 -11 -59 362 748 168 362 307 661 311 664 3 3 9 1 14 -4 4 -5
151 -319 326 -699 175 -379 327 -703 338 -718 13 -19 24 -26 36 -22 9 4 41 14
71 23 30 8 60 19 67 24 8 7 -1 37 -34 111 -62 141 -414 913 -572 1255 -127
275 -130 284 -117 315 40 95 600 1304 609 1315 15 19 182 101 296 147 126 50
298 92 431 105 144 15 269 1 413 -47 276 -91 523 -291 984 -795 343 -375 495
-519 664 -628 131 -85 342 -171 416 -169 33 0 27 3 -44 24 -109 33 -224 87
-368 174 -66 40 -124 77 -129 81 -8 8 252 590 274 614 5 5 51 -18 105 -54 170
-110 409 -210 501 -210 12 0 30 -7 38 -15 18 -18 8 -49 -84 -260 -105 -241
-168 -345 -206 -345 -7 0 -16 -5 -20 -12 -5 -8 43 -10 197 -5 307 10 383 29
629 153 l145 73 309 673 c975 2120 1119 2442 1100 2446 -8 2 -65 -19 -126 -46
-434 -191 -741 -218 -1048 -92 -247 102 -462 285 -950 810 -259 278 -400 418
-518 512 -183 145 -344 216 -590 258 -146 25 -202 24 -363 -5z m279 -12 c4
-25 -49 -157 -165 -412 -45 -101 -83 -188 -83 -192 0 -5 17 -9 38 -9 107 0
377 -115 580 -248 22 -14 23 -13 58 64 89 194 206 430 230 461 14 18 32 33 41
33 18 0 401 -381 463 -460 53 -68 52 -83 -23 -257 -100 -234 -187 -403 -207
-403 -11 0 -98 82 -207 196 -176 183 -304 304 -323 304 -4 0 -50 -91 -101
-202 -156 -336 -181 -383 -205 -381 -11 1 -69 32 -130 69 -129 80 -229 124
-362 160 -132 36 -135 38 -127 81 9 47 76 202 171 398 43 88 80 164 83 169 6
13 -229 0 -325 -19 -140 -27 -295 -74 -393 -121 -95 -44 -121 -49 -121 -19 0
21 99 243 171 386 70 139 119 197 202 243 117 65 359 136 582 170 120 19 149
17 153 -11z m-605 -1224 c28 -7 37 -15 37 -31 0 -22 -83 -216 -194 -453 l-66
-140 73 -16 c186 -40 296 -85 454 -185 89 -55 108 -64 119 -52 8 7 68 128 134
268 126 265 144 300 160 300 22 0 198 -160 350 -318 90 -95 170 -172 177 -172
7 0 44 64 82 143 38 78 98 204 135 280 42 87 71 137 81 137 9 0 70 -57 137
-127 256 -268 387 -389 402 -372 2 2 62 130 134 284 76 162 138 281 147 283 8
2 78 -35 155 -82 160 -97 206 -116 378 -159 97 -25 122 -34 122 -48 0 -10 -25
-71 -56 -136 -66 -141 -179 -399 -189 -431 -10 -33 11 -36 148 -22 154 16 306
54 472 118 72 28 143 54 158 57 63 16 44 -41 -116 -357 -55 -108 -113 -213
-130 -234 -68 -81 -388 -194 -648 -228 -114 -15 -162 -12 -181 11 -16 20 -3
56 123 346 55 125 100 238 102 249 2 19 -5 23 -49 30 -102 15 -312 104 -463
197 -46 28 -92 51 -101 51 -12 0 -43 -56 -110 -202 -134 -293 -178 -378 -195
-378 -24 0 -154 122 -320 300 -152 165 -189 200 -208 200 -5 0 -51 -89 -104
-197 -136 -283 -163 -336 -178 -352 -18 -18 -42 3 -247 217 -151 158 -281 282
-296 282 -4 0 -40 -75 -81 -168 -149 -335 -193 -422 -213 -422 -10 0 -58 24
-106 54 -168 103 -365 186 -444 186 -18 0 -44 7 -57 16 -20 14 -22 22 -17 55
7 44 65 183 156 374 34 72 71 149 81 173 l19 43 -63 -6 c-276 -28 -414 -59
-614 -140 -134 -55 -173 -65 -173 -44 0 28 255 579 278 600 9 9 69 39 132 67
171 74 384 133 550 151 41 5 77 9 80 10 3 0 22 -4 43 -10z m-4654 -44 c178
-36 435 -126 543 -190 14 -9 123 -235 239 -498 36 -81 48 -127 33 -127 -3 0
-63 23 -132 51 -211 86 -337 119 -527 139 -60 6 -125 13 -142 15 -18 2 -33 0
-33 -4 0 -5 33 -78 73 -162 117 -244 177 -392 177 -432 0 -41 -19 -57 -71 -57
-75 0 -293 -92 -449 -190 -43 -27 -86 -50 -95 -52 -25 -4 -39 22 -177 326 -64
144 -122 262 -128 264 -6 2 -125 -111 -263 -252 -139 -141 -258 -256 -265
-256 -8 0 -74 124 -149 278 -74 152 -136 279 -139 281 -9 10 -63 -41 -214
-202 -183 -196 -294 -299 -319 -295 -18 3 -41 49 -182 353 -54 116 -104 214
-112 219 -11 7 -44 -8 -118 -52 -168 -99 -391 -192 -462 -192 -12 0 -28 -4
-35 -9 -16 -10 1 -57 116 -317 101 -229 118 -280 102 -299 -21 -25 -78 -28
-191 -11 -274 42 -563 145 -631 225 -38 44 -138 229 -221 408 -65 138 -77 180
-55 188 8 3 79 -19 157 -49 78 -31 184 -67 234 -81 159 -43 397 -69 412 -45 7
11 -49 145 -170 405 -63 136 -80 183 -71 192 6 6 67 25 135 43 144 36 221 70
385 168 65 40 122 72 127 72 14 0 31 -33 159 -307 68 -145 128 -263 135 -263
23 0 162 130 323 301 167 180 195 205 214 193 9 -6 67 -122 229 -462 22 -46
47 -86 55 -89 10 -4 73 54 195 180 166 172 316 307 340 307 6 0 40 -62 76
-137 36 -76 98 -207 139 -290 40 -84 78 -153 84 -153 6 0 52 26 103 59 51 32
115 70 142 83 69 35 214 83 312 104 56 12 80 21 74 28 -16 21 -261 565 -261
581 0 2 7 11 16 19 24 24 136 20 283 -9z m4115 -1225 c14 -14 1 -46 -115 -300
-72 -157 -136 -291 -141 -297 -7 -9 -44 -13 -119 -13 -196 0 -366 -35 -577
-120 -132 -54 -152 -58 -152 -35 0 20 111 267 195 434 53 106 72 135 103 155
87 57 372 154 512 175 41 6 86 13 100 15 58 10 180 1 194 -14z m-3501 -31
c169 -34 413 -122 484 -175 23 -17 52 -65 104 -172 94 -194 179 -386 179 -406
0 -25 -26 -19 -144 29 -193 80 -350 115 -556 124 l-144 6 -133 285 c-73 157
-131 294 -130 305 1 13 12 22 32 27 46 10 198 -1 308 -23z m5890 -130 c23 -12
60 -34 82 -49 100 -68 285 -148 417 -180 83 -20 98 -26 98 -40 0 -5 -56 -132
-124 -283 -68 -150 -127 -284 -131 -297 l-7 -23 119 6 c201 11 335 45 592 151
70 29 117 44 123 38 6 -6 -44 -125 -130 -313 l-139 -304 -124 -53 c-259 -112
-409 -152 -615 -168 -97 -7 -134 -1 -134 21 0 8 56 137 124 287 68 150 126
282 128 293 2 16 -7 23 -57 38 -194 59 -232 73 -298 106 -40 20 -115 63 -166
95 -54 34 -96 55 -101 50 -5 -5 -62 -119 -126 -253 -142 -298 -150 -311 -178
-311 -36 0 -139 93 -335 304 -101 108 -187 193 -192 189 -4 -4 -54 -108 -112
-230 -118 -251 -152 -313 -171 -313 -8 0 -73 62 -146 138 -73 75 -189 190
-259 255 -69 64 -127 123 -129 130 -2 10 223 517 254 571 8 13 18 17 35 13 37
-10 188 -147 363 -331 91 -95 163 -163 168 -158 5 5 65 130 134 278 69 148
133 277 143 287 17 18 25 10 210 -186 106 -113 224 -233 264 -267 l71 -62 23
48 c13 27 70 152 127 278 99 215 127 266 148 266 5 0 28 -10 51 -21z m-8482
-115 c30 -61 91 -191 134 -288 43 -98 82 -179 86 -182 12 -7 183 156 355 339
97 103 173 177 182 175 9 -2 70 -121 148 -287 73 -156 135 -286 138 -288 3 -3
106 96 228 220 218 220 294 285 321 274 7 -3 71 -133 142 -289 71 -155 130
-286 132 -290 2 -4 -27 -35 -64 -69 -37 -34 -157 -153 -265 -263 -219 -223
-211 -219 -258 -135 -13 24 -70 141 -126 258 -55 118 -106 217 -111 218 -6 2
-88 -78 -182 -179 -241 -259 -327 -332 -360 -305 -8 7 -74 135 -148 285 -84
173 -138 272 -147 272 -8 0 -59 -28 -113 -62 -130 -82 -213 -119 -363 -163
-69 -20 -129 -40 -133 -44 -9 -9 17 -71 157 -378 53 -116 96 -216 96 -222 0
-19 -49 -24 -153 -17 -139 10 -237 30 -370 76 -162 56 -340 136 -355 158 -15
22 -257 550 -267 582 -10 32 22 26 153 -29 143 -59 253 -95 352 -116 77 -17
330 -33 330 -22 0 4 -57 131 -126 284 -69 153 -126 289 -127 303 -2 22 4 26
53 38 168 43 315 104 445 185 85 53 134 78 150 74 6 -1 35 -52 66 -113z m655
-1418 c74 -159 134 -296 134 -305 0 -19 -211 -150 -330 -204 -84 -39 -230 -87
-263 -87 -37 0 -84 36 -113 86 -33 56 -174 369 -206 457 -20 55 -20 60 -5 72
9 7 42 15 72 19 108 12 313 102 460 201 44 30 88 53 99 52 14 -2 50 -70 152
-291z"/>
</g>
</svg>
